<svg width="142" height="34" viewBox="0 0 142 34" fill="none" xmlns="http://www.w3.org/2000/svg">
<path d="M0 6.81818V33H3.75852V14.0412H4.00142L11.723 32.9616H14.8423L22.5639 14.054H22.8068V33H26.5653V6.81818H21.7713L13.4361 27.1705H13.1293L4.79403 6.81818H0Z" fill="white"/>
<path d="M41.1328 33.3963C45.4155 33.3963 48.4453 31.2869 49.3146 28.0909L45.6967 27.4389C45.0064 29.2926 43.3445 30.2386 41.1712 30.2386C37.8984 30.2386 35.6996 28.1165 35.5973 24.3324H49.5575V22.9773C49.5575 15.8821 45.3132 13.108 40.8643 13.108C35.3928 13.108 31.7876 17.2756 31.7876 23.3097C31.7876 29.4077 35.3416 33.3963 41.1328 33.3963ZM35.6101 21.4688C35.7635 18.6818 37.7834 16.2656 40.8899 16.2656C43.8558 16.2656 45.799 18.4645 45.8118 21.4688H35.6101Z" fill="white"/>
<path d="M68.5131 18.1577C67.7205 15.1023 65.3299 13.108 61.0856 13.108C56.6495 13.108 53.5046 15.4474 53.5046 18.9247C53.5046 21.7116 55.1921 23.5653 58.8739 24.3835L62.1978 25.1122C64.0898 25.5341 64.9719 26.3778 64.9719 27.6051C64.9719 29.1264 63.3484 30.3153 60.8427 30.3153C58.5543 30.3153 57.0842 29.331 56.6239 27.4006L52.9293 27.9631C53.5685 31.4403 56.4577 33.3963 60.8683 33.3963C65.6112 33.3963 68.8967 30.8778 68.8967 27.3239C68.8967 24.5497 67.1325 22.8366 63.5273 22.0057L60.408 21.2898C58.2475 20.7784 57.3143 20.0497 57.3271 18.7202C57.3143 17.2116 58.9506 16.1378 61.1239 16.1378C63.5018 16.1378 64.6012 17.4545 65.0487 18.7713L68.5131 18.1577Z" fill="white"/>
<path d="M82.2656 13.3636H78.2386V8.65909H74.4162V13.3636H71.5398V16.4318H74.4162V28.027C74.4034 31.5938 77.1264 33.3196 80.1435 33.2557C81.358 33.2429 82.1761 33.0128 82.6236 32.8466L81.9332 29.6889C81.6776 29.7401 81.2046 29.8551 80.5909 29.8551C79.3509 29.8551 78.2386 29.446 78.2386 27.2344V16.4318H82.2656V13.3636Z" fill="white"/>
<path d="M94.5543 33.3963C100.09 33.3963 103.708 29.3438 103.708 23.2713C103.708 17.1605 100.09 13.108 94.5543 13.108C89.0188 13.108 85.4009 17.1605 85.4009 23.2713C85.4009 29.3438 89.0188 33.3963 94.5543 33.3963ZM94.5671 30.1875C90.9492 30.1875 89.2617 27.0298 89.2617 23.2585C89.2617 19.5 90.9492 16.304 94.5671 16.304C98.1594 16.304 99.8469 19.5 99.8469 23.2585C99.8469 27.0298 98.1594 30.1875 94.5671 30.1875Z" fill="white"/>
<path d="M107.18 9H108.237V5.59091H110.146C110.223 5.59091 110.295 5.59091 110.368 5.58665L112.209 9H113.436L111.463 5.39489C112.575 5.01562 113.095 4.10795 113.095 2.94886C113.095 1.40625 112.175 0.272727 110.129 0.272727H107.18V9ZM108.237 4.63636V1.21023H110.095C111.51 1.21023 112.055 1.90057 112.055 2.94886C112.055 3.99716 111.51 4.63636 110.112 4.63636H108.237Z" fill="white"/>
<path d="M118.845 6.32386C118.845 7.55114 117.907 8.11364 117.157 8.11364C116.322 8.11364 115.725 7.5 115.725 6.54545V2.45455H114.72V6.61364C114.72 8.28409 115.606 9.08523 116.833 9.08523C117.822 9.08523 118.47 8.55682 118.777 7.89205H118.845V9H119.85V2.45455H118.845V6.32386Z" fill="white"/>
<path d="M126.329 3.92045C126.013 2.99148 125.306 2.36932 124.011 2.36932C122.63 2.36932 121.607 3.15341 121.607 4.26136C121.607 5.16477 122.144 5.76989 123.346 6.05114L124.437 6.30682C125.097 6.46023 125.408 6.77557 125.408 7.22727C125.408 7.78977 124.812 8.25 123.874 8.25C123.052 8.25 122.536 7.89631 122.357 7.19318L121.403 7.43182C121.637 8.54403 122.553 9.13636 123.891 9.13636C125.413 9.13636 126.448 8.3054 126.448 7.17614C126.448 6.2642 125.877 5.68892 124.71 5.40341L123.738 5.16477C122.962 4.97301 122.613 4.71307 122.613 4.21023C122.613 3.64773 123.21 3.23864 124.011 3.23864C124.888 3.23864 125.251 3.72443 125.425 4.17614L126.329 3.92045Z" fill="white"/>
<path d="M132.598 3.92045C132.283 2.99148 131.576 2.36932 130.28 2.36932C128.9 2.36932 127.877 3.15341 127.877 4.26136C127.877 5.16477 128.414 5.76989 129.615 6.05114L130.706 6.30682C131.367 6.46023 131.678 6.77557 131.678 7.22727C131.678 7.78977 131.081 8.25 130.144 8.25C129.321 8.25 128.806 7.89631 128.627 7.19318L127.672 7.43182C127.907 8.54403 128.823 9.13636 130.161 9.13636C131.682 9.13636 132.718 8.3054 132.718 7.17614C132.718 6.2642 132.147 5.68892 130.979 5.40341L130.007 5.16477C129.232 4.97301 128.882 4.71307 128.882 4.21023C128.882 3.64773 129.479 3.23864 130.28 3.23864C131.158 3.23864 131.52 3.72443 131.695 4.17614L132.598 3.92045Z" fill="white"/>
<path d="M134.232 9H135.237V2.45455H134.232V9ZM134.743 1.36364C135.135 1.36364 135.459 1.05682 135.459 0.681818C135.459 0.306818 135.135 0 134.743 0C134.351 0 134.027 0.306818 134.027 0.681818C134.027 1.05682 134.351 1.36364 134.743 1.36364Z" fill="white"/>
<path d="M139.005 9.15341C140.147 9.15341 140.744 8.53977 140.949 8.11364H141V9H142.005V4.6875C142.005 2.60795 140.42 2.36932 139.585 2.36932C138.596 2.36932 137.471 2.71023 136.96 3.90341L137.914 4.24432C138.136 3.76705 138.66 3.25568 139.619 3.25568C140.544 3.25568 141 3.74574 141 4.58523V4.61932C141 5.10511 140.505 5.0625 139.312 5.21591C138.098 5.37358 136.772 5.64205 136.772 7.14205C136.772 8.42045 137.761 9.15341 139.005 9.15341ZM139.159 8.25C138.358 8.25 137.778 7.89205 137.778 7.19318C137.778 6.42614 138.477 6.1875 139.261 6.08523C139.687 6.03409 140.829 5.91477 141 5.71023V6.63068C141 7.44886 140.352 8.25 139.159 8.25Z" fill="white"/>
</svg>
